<svg xmlns="http://www.w3.org/2000/svg" width="21.5" height="41.045" viewBox="0 0 21.5 41.045">
  <g id="Group_2963" data-name="Group 2963" transform="translate(-28 -960.362)">
    <path id="Path_3681" data-name="Path 3681" d="M35.727,960.362a.505.505,0,0,0-.4.489v2.443h-4.4A2.936,2.936,0,0,0,28,966.226v32.25a2.936,2.936,0,0,0,2.932,2.932H46.568a2.936,2.936,0,0,0,2.932-2.932v-32.25a2.936,2.936,0,0,0-2.932-2.932h-4.4v-2.443a.508.508,0,0,0-.489-.489Zm-4.795,3.909H46.568a1.94,1.94,0,0,1,1.955,1.955v32.25a1.94,1.94,0,0,1-1.955,1.955H30.932a1.94,1.94,0,0,1-1.955-1.955v-32.25a1.94,1.94,0,0,1,1.955-1.955Zm6.5,7.818a.5.5,0,0,0-.382.351l-2.932,10.75a.512.512,0,0,0,.473.626h3.726c-.924,2.706-1.783,5.466-2.718,8.154a.489.489,0,0,0,.886.4l6.352-10.75a.515.515,0,0,0-.428-.733H38.842l4.489-8.078a.514.514,0,0,0-.428-.718H37.437Z" fill="#ba1414"/>
  </g>
</svg>
